<svg version="1.2" xmlns="http://www.w3.org/2000/svg" width="100%" height=100%"><path fill-rule="evenodd" d="M2.2 125.4c.9-4.5 2.2-9.9 2.2-9.9l-.2-11.8s7.5-3.8 7.8-5.6c.2-1.8 1.1-23.1 3.5-26.8 2.5-3.8-1.1-17.1-1.1-17.1h17.4s17.6-15.1 30-20.7c0 0 2-8.7-5.3-13.3l-.2-2.7s16-2.2 37.3-3.8c0 0 7.3-7.9 18-9.1 10.7-1.2 135.3-10 166.2 13.4 30.9 23.4 53.1 39 53.1 39s126.9-.8 157.2 31.6c0 0 .4 11.1 0 16.9 0 0 3.1 5.3 7.3 6.6 4.3 1.3-1.1 8.8-1.1 8.8s-8.9 4.8-9.5 11.6c-.7 6.9-18.1 15.6-26.3 21.6 0 0 5.2-58-44.5-62.4-49.7-4.5-53.2 59.1-53.2 59.1H180.5s-23.6 7.1-29.4 3.3c0 0-2.2-62.4-47.2-62.4s-52.5 38.6-49 56c0 0-12.4.4-17.8-4.5-5.3-4.9-16.5-.9-16.5-.9s-12.9.5-9.3-5.8c0 0-10-6.5-9.1-11.1zm10.2.6 34.5 1.7S60.7 85 102.6 85.3c41.8.3 50.3 47.2 50.3 47.2l205.3 2.1s2.1-45 50.6-49.3c48.6-4.3 54.4 49.3 54.4 49.3s12.2-.1 15.3-2.5c0 0-8.7-.9-11.1-3.1-2.5-2.2-4.7-48.4-56.3-48.4-51.7 0-57.9 47.2-57.9 47.2l-195.9.3s-8.7-39.8-49.6-46.4l.2-19.3 3.1-4.8c35.2 2.4 70.9 3.4 102.4 3.6l1.2 63.4c6-29.4 1.9-53.9-.3-63.4H226c20.6 0 39-.3 53.6-.6l-.5-1.2c-.9-2.5-1.1-4.7-1-6.5-.4-7.9 6.7-9.2 6.7-9.2C266.6 29.3 237 24 225.4 23.5c-11.6-.4-6.8 9.7-6.8 9.7l6.6 24.5-11.8-.2c0-.1-.1.1-.1 0h-.1c-3.8-.1-7.5-.2-11.3-.2l-.1-.2-3-33.6s-49.3-2.6-58 13.1l2.1 19.3c-11.3-.2-21.8.2-30.6.1l-.5-.1-26.9-.4c8.3.7 16.7 1.4 25.1 2l-4.8 4.2-.4 18.6s-46.3-.4-60.1 43.2c0 0-9.6-8.3-10.7-17.6 0 0-14.7 3.1-26.7 0 0 0-2.5 8.6 5.1 20.1zm34.8-69.2c1.6-1.1 26.8-19.2 30.9-22.9 4.2-3.7 4.6-7.3 4.6-7.3zm270.7.1s-43.4-35-74.2-40.5c-30.7-5.6-98.1-2.7-118.2 7.3-19.3 9.7-74 30.1-39.9 31.5-19.2-10.4 67.1-35 67.1-35s75.2-7.8 103.3 2.4c28 10.2 59 36.7 59 36.7 3.3.1 5.1.2 5.1.2zm-205-47.3 5.3 4C213.5 4.7 252 13 266 18.3 215.5-4.1 112.9 9.6 112.9 9.6zM64.8 20.4v3.1s28.5-4.7 44.5-5.9zm232 39.8s7.1-4.6 2.3-9.8c-4.7-5.1-10.7-4.8-10.7-4.8s13 5.7 8.4 14.6zm27.1 1.9c21.3 16.9 9.2 59.3 8.3 62.2 21-50.5-8.3-62.2-8.3-62.2zm19.5 62.4h7.8c3.3-22.1 17.5-32.1 17.5-32.1-17.5-1.5-25.3 32.1-25.3 32.1zm138.3-28c4.4-4.4 0-8.7 0-8.7-18.9-14-60.1-14.3-60.1-14.3 29.1 9 33.1 17.6 39.9 21.2 6.8 3.6 20.2 1.8 20.2 1.8zM24.5 64.1c-13.7 15.2 2 16.2 19.2 10.8 17.1-5.3 15.1-10.8 15.1-10.8zm225.2 8c0-.9-.8-1.7-1.7-1.7h-25.9c-.9 0-1.6.8-1.6 1.7 0 .9.7 1.6 1.6 1.6H248c.9 0 1.7-.7 1.7-1.6zm-104.9-2.2c0-.9-.7-1.5-1.5-1.5h-25.8c-.9 0-1.5.6-1.5 1.5 0 .8.6 1.4 1.5 1.4h25.8c.8 0 1.5-.6 1.5-1.4z"/><path d="M266 18.4q3.8 1.6 7 3.5c-.1-.1-1.9-1.6-7-3.5z"/><path fill-rule="evenodd" d="M101.9 108.1c16.4 0 29.7 13.2 29.7 29.5s-13.3 29.5-29.7 29.5-29.7-13.2-29.7-29.5 13.3-29.5 29.7-29.5zm-9.6 6.3 9.6 16.4 8-16.4c-7.1-5.9-17.6 0-17.6 0zm6.2 23.2c0 2.2 1.8 3.9 4 3.9s4-1.7 4-3.9-1.8-3.9-4-3.9-4 1.7-4 3.9zm21-18.5-10.1 16 18.2-.4c2-9.1-8.1-15.6-8.1-15.6zm6.8 23.8-19-.4 9.7 15.3c8.9-2.8 9.3-14.9 9.3-14.9zM110.7 162l-9.2-16.5-8.4 16.1c7 6.2 17.6.4 17.6.4zm-24.5-3.8 10.1-16.1-18.2.5c-2 9 8.1 15.6 8.1 15.6zm9.3-23.6-11.7-13.9c-8.4 4.1-7.2 16.1-7.2 16.1z"/><path fill-rule="evenodd" d="M102.5 97.4c22.8 0 41.2 18.3 41.2 41s-18.4 41-41.2 41c-22.8 0-41.2-18.3-41.2-41s18.4-41 41.2-41zm-33.2 40.2c0 17.9 14.6 32.5 32.6 32.5 18.1 0 32.7-14.6 32.7-32.5 0-18-14.6-32.5-32.7-32.5-18 0-32.6 14.5-32.6 32.5z"/><path fill-rule="evenodd" d="M101.9 108.1c16.4 0 29.7 13.2 29.7 29.5s-13.3 29.5-29.7 29.5-29.7-13.2-29.7-29.5 13.3-29.5 29.7-29.5zm-9.6 6.3 9.6 16.4 8-16.4c-7.1-5.9-17.6 0-17.6 0zm6.2 23.2c0 2.2 1.8 3.9 4 3.9s4-1.7 4-3.9-1.8-3.9-4-3.9-4 1.7-4 3.9zm21-18.5-10.1 16 18.2-.4c2-9.1-8.1-15.6-8.1-15.6zm6.8 23.8-19-.4 9.7 15.3c8.9-2.8 9.3-14.9 9.3-14.9zM110.7 162l-9.2-16.5-8.4 16.1c7 6.2 17.6.4 17.6.4zm-24.5-3.8 10.1-16.1-18.2.5c-2 9 8.1 15.6 8.1 15.6zm9.3-23.6-11.7-13.9c-8.4 4.1-7.2 16.1-7.2 16.1z"/><path fill-rule="evenodd" d="M101.9 108.1c16.4 0 29.7 13.2 29.7 29.5s-13.3 29.5-29.7 29.5-29.7-13.2-29.7-29.5 13.3-29.5 29.7-29.5zm-9.6 6.3 9.6 16.4 8-16.4c-7.1-5.9-17.6 0-17.6 0zm6.2 23.2c0 2.2 1.8 3.9 4 3.9s4-1.7 4-3.9-1.8-3.9-4-3.9-4 1.7-4 3.9zm21-18.5-10.1 16 18.2-.4c2-9.1-8.1-15.6-8.1-15.6zm6.8 23.8-19-.4 9.7 15.3c8.9-2.8 9.3-14.9 9.3-14.9zM110.7 162l-9.2-16.5-8.4 16.1c7 6.2 17.6.4 17.6.4zm-24.5-3.8 10.1-16.1-18.2.5c-2 9 8.1 15.6 8.1 15.6zm9.3-23.6-11.7-13.9c-8.4 4.1-7.2 16.1-7.2 16.1zM409.1 108.1c16.4 0 29.7 13.2 29.7 29.5s-13.3 29.5-29.7 29.5-29.7-13.2-29.7-29.5 13.3-29.5 29.7-29.5zm-9.6 6.3 9.6 16.4 8-16.4c-7.1-5.9-17.6 0-17.6 0zm6.2 23.2c0 2.2 1.8 3.9 4 3.9s4-1.7 4-3.9-1.8-3.9-4-3.9-4 1.7-4 3.9zm21-18.5-10.2 16 18.2-.4c2.1-9.1-8-15.6-8-15.6zm6.8 23.8-19-.4 9.7 15.3c8.9-2.8 9.3-14.9 9.3-14.9zM417.9 162l-9.3-16.5-8.3 16.1c7 6.2 17.6.4 17.6.4zm-24.5-3.8 10.1-16.1-18.2.5c-2 9 8.1 15.6 8.1 15.6zm9.3-23.6-11.8-13.9c-8.3 4.1-7.1 16.1-7.1 16.1z"/><path fill-rule="evenodd" d="M409.7 97.4c22.8 0 41.2 18.3 41.2 41s-18.4 41-41.2 41c-22.8 0-41.2-18.3-41.2-41s18.4-41 41.2-41zm-33.2 40.2c0 17.9 14.6 32.5 32.6 32.5 18.1 0 32.7-14.6 32.7-32.5 0-18-14.6-32.5-32.7-32.5-18 0-32.6 14.5-32.6 32.5z"/><path fill-rule="evenodd" d="M409.1 108.1c16.4 0 29.7 13.2 29.7 29.5s-13.3 29.5-29.7 29.5-29.7-13.2-29.7-29.5 13.3-29.5 29.7-29.5zm-9.6 6.3 9.6 16.4 8-16.4c-7.1-5.9-17.6 0-17.6 0zm6.2 23.2c0 2.2 1.8 3.9 4 3.9s4-1.7 4-3.9-1.8-3.9-4-3.9-4 1.7-4 3.9zm21-18.5-10.2 16 18.2-.4c2.1-9.1-8-15.6-8-15.6zm6.8 23.8-19-.4 9.7 15.3c8.9-2.8 9.3-14.9 9.3-14.9zM417.9 162l-9.3-16.5-8.3 16.1c7 6.2 17.6.4 17.6.4zm-24.5-3.8 10.1-16.1-18.2.5c-2 9 8.1 15.6 8.1 15.6zm9.3-23.6-11.8-13.9c-8.3 4.1-7.1 16.1-7.1 16.1z"/><path fill-rule="evenodd" d="M409.1 108.1c16.4 0 29.7 13.2 29.7 29.5s-13.3 29.5-29.7 29.5-29.7-13.2-29.7-29.5 13.3-29.5 29.7-29.5zm-9.6 6.3 9.6 16.4 8-16.4c-7.1-5.9-17.6 0-17.6 0zm6.2 23.2c0 2.2 1.8 3.9 4 3.9s4-1.7 4-3.9-1.8-3.9-4-3.9-4 1.7-4 3.9zm21-18.5-10.2 16 18.2-.4c2.1-9.1-8-15.6-8-15.6zm6.8 23.8-19-.4 9.7 15.3c8.9-2.8 9.3-14.9 9.3-14.9zM417.9 162l-9.3-16.5-8.3 16.1c7 6.2 17.6.4 17.6.4zm-24.5-3.8 10.1-16.1-18.2.5c-2 9 8.1 15.6 8.1 15.6zm9.3-23.6-11.8-13.9c-8.3 4.1-7.1 16.1-7.1 16.1z"/></svg>